# xmcd CD database file
# Generated: Fre Mär 7 16:00:09 2003 by KSCD
# 
# Track frame offsets:
#       150
#       18375
#       33915
#       48300
#       62747
#       78442
#       93030
#       109355
#       126800
#       140492
#       161770
#       179300
#       195332
#       215292
#       238855
#       259637
#       271535
#       287145
#       306430
#
# Disc length: 4308 seconds
#
# Revision: 1
# Processed by: cddbd v1.4PL0 Copyright (c) Steve Scherf et al.
# Submitted via: Kscd 1.3.3
#
DISCID=0610d213
DTITLE=Master Etonia Lote - Sunset
DYEAR=1900
DGENRE=
TTITLE0=
TTITLE1=
TTITLE2=
TTITLE3=
TTITLE4=
TTITLE5=
TTITLE6=
TTITLE7=
TTITLE8=
TTITLE9=
TTITLE10=
TTITLE11=
TTITLE12=
TTITLE13=
TTITLE14=
TTITLE15=
TTITLE16=
TTITLE17=
TTITLE18=Vale-O
EXTD=
EXTT0=
EXTT1=
EXTT2=
EXTT3=
EXTT4=
EXTT5=
EXTT6=
EXTT7=
EXTT8=
EXTT9=
EXTT10=
EXTT11=
EXTT12=
EXTT13=
EXTT14=
EXTT15=
EXTT16=
EXTT17=
EXTT18=
PLAYORDER=
